<svg xmlns="http://www.w3.org/2000/svg" viewBox="0 0 500 500"><g id="freepik--background-simple--inject-63"><path d="M165.19,75.75s-75.77,38.61-113.56,98.1-34.8,136,11.12,192.78S196.44,416,269.93,452s154.57,28.58,189.32-47.66S441.6,299.57,432.6,211.36,344.07-6,165.19,75.75Z" style="fill:#407BFF"></path><path d="M165.19,75.75s-75.77,38.61-113.56,98.1-34.8,136,11.12,192.78S196.44,416,269.93,452s154.57,28.58,189.32-47.66S441.6,299.57,432.6,211.36,344.07-6,165.19,75.75Z" style="fill:#fff;opacity:0.7000000000000001"></path></g><g id="freepik--Icons--inject-63"><path d="M467.2,273.5h-4.15v-.71a7.32,7.32,0,0,0-7.31-7.31h-2.81a7.32,7.32,0,0,0-7.32,7.31v.71h-4.14a4.2,4.2,0,0,0-4.21,4.21v19.18a4.21,4.21,0,0,0,4.21,4.21H467.2a4.22,4.22,0,0,0,4.21-4.21V277.71A4.21,4.21,0,0,0,467.2,273.5Zm-19.59-.71a5.32,5.32,0,0,1,5.32-5.31h2.81a5.31,5.31,0,0,1,5.31,5.31v.71H447.61Z" style="fill:#263238"></path><polygon points="462 285.34 456.7 285.34 456.7 280.05 451.96 280.05 451.96 285.34 446.66 285.34 446.66 290.09 451.96 290.09 451.96 295.38 456.7 295.38 456.7 290.09 462 290.09 462 285.34" style="fill:#fff"></polygon><path d="M459,159.2h0a6.27,6.27,0,0,1-6.27-6.28V136a6.27,6.27,0,0,1,6.27-6.28h0a6.27,6.27,0,0,1,6.27,6.28v16.89A6.27,6.27,0,0,1,459,159.2Z" style="fill:#fff;stroke:#263238;stroke-linecap:round;stroke-linejoin:round"></path><path d="M459,159.2h0a6.27,6.27,0,0,1-6.27-6.28v-8.45h12.54v8.45A6.27,6.27,0,0,1,459,159.2Z" style="fill:#263238;stroke:#263238;stroke-linecap:round;stroke-linejoin:round"></path><path d="M427.46,134.28h0a6.26,6.26,0,0,1,1-8.82l13.17-10.58a6.29,6.29,0,0,1,8.83,1h0a6.28,6.28,0,0,1-1,8.82l-13.18,10.57A6.27,6.27,0,0,1,427.46,134.28Z" style="fill:#fff;stroke:#263238;stroke-linecap:round;stroke-linejoin:round"></path><path d="M427.46,134.28h0a6.26,6.26,0,0,1,1-8.82l6.59-5.29,7.85,9.79-6.59,5.28A6.27,6.27,0,0,1,427.46,134.28Z" style="fill:#263238;stroke:#263238;stroke-linecap:round;stroke-linejoin:round"></path><path d="M364.75,88.24a3.75,3.75,0,0,0-2.18.7L348,77.63a8.15,8.15,0,0,0-.46-8.5l8.9-11.38a3.78,3.78,0,1,0-2.42-3.52,3.69,3.69,0,0,0,.69,2.17l-8.66,11.09a8.17,8.17,0,0,0-13.42,5.8H322.51a3.78,3.78,0,1,0-.39,2.19h10.7a8.18,8.18,0,0,0,13.92,3.92l14.49,11.27a3.77,3.77,0,1,0,3.52-2.43Z" style="fill:#263238"></path><path d="M68.78,159.32h0a4.58,4.58,0,0,1-4.57-4.57v-38h9.14v38A4.57,4.57,0,0,1,68.78,159.32Z" style="fill:#fff;stroke:#263238;stroke-linecap:round;stroke-linejoin:round"></path><path d="M68.78,159.32h0a4.58,4.58,0,0,1-4.57-4.57V131.38h9.14v23.37A4.57,4.57,0,0,1,68.78,159.32Z" style="fill:#263238;stroke:#263238;stroke-linecap:round;stroke-linejoin:round"></path><rect x="62.91" y="114.53" width="11.75" height="3.33" style="fill:#fff;stroke:#263238;stroke-linecap:round;stroke-linejoin:round"></rect><path d="M54.93,159.32h0a4.58,4.58,0,0,1-4.57-4.57v-38H59.5v38A4.57,4.57,0,0,1,54.93,159.32Z" style="fill:#fff;stroke:#263238;stroke-linecap:round;stroke-linejoin:round"></path><path d="M54.93,159.32h0a4.58,4.58,0,0,1-4.57-4.57V131.38H59.5v23.37A4.57,4.57,0,0,1,54.93,159.32Z" style="fill:#263238;stroke:#263238;stroke-linecap:round;stroke-linejoin:round"></path><rect x="49.06" y="114.53" width="11.75" height="3.33" style="fill:#fff;stroke:#263238;stroke-linecap:round;stroke-linejoin:round"></rect><path d="M186.78,77.07l3.64-8.74a.77.77,0,0,1,.73-.46.75.75,0,0,1,.68.53l4.41,14.54,3.36-10.71a.75.75,0,0,1,.7-.53.8.8,0,0,1,.72.5l1.87,5.38H213a12.21,12.21,0,0,0,3.38-8A11.33,11.33,0,0,0,194,67a11.33,11.33,0,0,0-22.36,2.59,12.36,12.36,0,0,0,2.95,7.53Z" style="fill:#263238"></path><path d="M202.36,79.08a.75.75,0,0,1-.71-.5l-1.3-3.74-3.41,10.87a.76.76,0,0,1-.72.53h0a.74.74,0,0,1-.71-.54L191,70.83l-3,7.28a.75.75,0,0,1-.69.46H175.8c2.47,2.76,5.55,5.2,7.85,7.47,3.48,3.44,6.89,7,10.44,10.32,4.55-4.49,9.13-9,13.64-13.49,1.25-1.25,2.61-2.49,3.87-3.79Z" style="fill:#263238"></path><rect x="36.2" y="287.7" width="5.19" height="16.19" transform="translate(-21.51 587.97) rotate(-160.87)" style="fill:#fff;stroke:#263238;stroke-miterlimit:10"></rect><rect x="31.63" y="303.36" width="8.01" height="3.05" transform="translate(-30.62 604.62) rotate(-160.87)" style="fill:#fff;stroke:#263238;stroke-miterlimit:10"></rect><rect x="38.04" y="264.83" width="12.83" height="29.33" transform="translate(-5.16 558.11) rotate(-160.87)" style="fill:#fff;stroke:#263238;stroke-miterlimit:10"></rect><rect x="41.87" y="265.19" width="9.47" height="16.19" transform="translate(1.06 546.75) rotate(-160.87)" style="fill:#263238;stroke:#263238;stroke-miterlimit:10"></rect><rect x="40.4" y="275.58" width="5.19" height="16.19" transform="translate(-9.36 565.77) rotate(-160.87)" style="fill:#263238;stroke:#263238;stroke-miterlimit:10"></rect><rect x="32.91" y="289.78" width="14.66" height="3.67" transform="translate(-17.31 580.31) rotate(-160.87)" style="fill:#fff;stroke:#263238;stroke-miterlimit:10"></rect><rect x="46.74" y="259.44" width="7.64" height="4.89" transform="translate(12.49 525.88) rotate(-160.87)" style="fill:#fff;stroke:#263238;stroke-miterlimit:10"></rect><rect x="42.23" y="262.94" width="14.66" height="3.67" transform="translate(9.6 531.16) rotate(-160.87)" style="fill:#fff;stroke:#263238;stroke-miterlimit:10"></rect><line x1="51.42" y1="258.95" x2="57.22" y2="242.21" style="fill:none;stroke:#263238;stroke-miterlimit:10"></line></g></svg>