<svg xmlns="http://www.w3.org/2000/svg" viewBox="0 0 500 500"><g id="freepik--background-complete--inject-38"><rect x="416.78" y="398.49" width="33.12" height="0.25" style="fill:#ebebeb"></rect><rect x="322.53" y="401.21" width="8.69" height="0.25" style="fill:#ebebeb"></rect><rect x="396.59" y="389.21" width="19.19" height="0.25" style="fill:#ebebeb"></rect><rect x="52.46" y="390.89" width="43.19" height="0.25" style="fill:#ebebeb"></rect><rect x="104.56" y="390.89" width="6.33" height="0.25" style="fill:#ebebeb"></rect><rect x="131.47" y="395.11" width="93.68" height="0.25" style="fill:#ebebeb"></rect><path d="M237,337.8H43.92a5.71,5.71,0,0,1-5.71-5.71V60.66A5.71,5.71,0,0,1,43.92,55H237a5.71,5.71,0,0,1,5.71,5.71V332.09A5.71,5.71,0,0,1,237,337.8ZM43.92,55.2a5.47,5.47,0,0,0-5.46,5.46V332.09a5.47,5.47,0,0,0,5.46,5.46H237a5.47,5.47,0,0,0,5.46-5.46V60.66A5.47,5.47,0,0,0,237,55.2Z" style="fill:#ebebeb"></path><path d="M453.31,337.8H260.21a5.72,5.72,0,0,1-5.71-5.71V60.66A5.72,5.72,0,0,1,260.21,55h193.1A5.71,5.71,0,0,1,459,60.66V332.09A5.71,5.71,0,0,1,453.31,337.8ZM260.21,55.2a5.47,5.47,0,0,0-5.46,5.46V332.09a5.47,5.47,0,0,0,5.46,5.46h193.1a5.47,5.47,0,0,0,5.46-5.46V60.66a5.47,5.47,0,0,0-5.46-5.46Z" style="fill:#ebebeb"></path><rect y="382.4" width="500" height="0.25" style="fill:#ebebeb"></rect><rect x="234.69" y="263.34" width="230.65" height="7.16" transform="translate(616.93 -83.1) rotate(90)" style="fill:#f0f0f0"></rect><rect x="311.01" y="263.34" width="230.65" height="7.16" transform="translate(693.25 -159.41) rotate(90)" style="fill:#f5f5f5"></rect><rect x="-41.65" y="263.34" width="230.65" height="7.16" transform="translate(340.59 193.25) rotate(90)" style="fill:#e6e6e6"></rect><rect x="70.09" y="341.83" width="83.48" height="10.55" style="fill:#e6e6e6"></rect><rect x="153.57" y="341.83" width="276.34" height="10.55" style="fill:#f5f5f5"></rect><rect x="70.09" y="246.71" width="83.48" height="10.55" style="fill:#e6e6e6"></rect><rect x="153.57" y="246.71" width="276.34" height="10.55" style="fill:#f5f5f5"></rect><rect x="70.09" y="151.59" width="83.48" height="10.55" style="fill:#e6e6e6"></rect><rect x="153.57" y="151.59" width="276.34" height="10.55" style="fill:#f5f5f5"></rect><rect x="34.66" y="263.34" width="230.65" height="7.16" transform="translate(416.9 116.93) rotate(90)" style="fill:#e6e6e6"></rect><polygon points="117.97 177.32 97.47 177.32 96.47 167.65 118.97 167.65 117.97 177.32" style="fill:#e6e6e6"></polygon><path d="M97.14,186.72h21.17a12.08,12.08,0,0,1,12.08,12.08v33.8a14.51,14.51,0,0,1-14.51,14.51H99.57A14.51,14.51,0,0,1,85.06,232.6V198.8a12.08,12.08,0,0,1,12.08-12.08Z" style="fill:#f5f5f5"></path><rect x="95.72" y="177.99" width="24" height="17.73" style="fill:#f5f5f5"></rect><path d="M123.72,178h-32a2,2,0,0,1-2-2h0a2,2,0,0,1,2-2h32a2,2,0,0,1,2,2h0A2,2,0,0,1,123.72,178Z" style="fill:#f5f5f5"></path><polygon points="233.28 294.83 217.63 294.83 216.87 287.45 234.05 287.45 233.28 294.83" style="fill:#e6e6e6"></polygon><rect x="216.29" y="295.34" width="18.32" height="13.53" style="fill:#f5f5f5"></rect><path d="M234.31,342.44a8.39,8.39,0,0,0,8.4-7.58c0-.42,0-.83,0-1.26V314.09A12.08,12.08,0,0,0,230.68,302H220.23a12.08,12.08,0,0,0-12.08,12.08V333.6c0,.43,0,.84,0,1.26a8.4,8.4,0,0,0,8.41,7.58Z" style="fill:#f0f0f0"></path><path d="M237.67,295.34H213.24a1.53,1.53,0,0,1-1.53-1.53h0a1.53,1.53,0,0,1,1.53-1.52h24.43a1.52,1.52,0,0,1,1.53,1.52h0A1.52,1.52,0,0,1,237.67,295.34Z" style="fill:#f0f0f0"></path><path d="M257.7,341.56h12.88a4.65,4.65,0,0,0,2.79-.95,15.2,15.2,0,1,0-18.31.1A4.38,4.38,0,0,0,257.7,341.56Z" style="fill:#f0f0f0"></path><rect x="260.04" y="300.57" width="8.2" height="20.27" style="fill:#f0f0f0"></rect><path d="M269.13,301.71h-10a1.68,1.68,0,0,1-1.68-1.68h0a1.68,1.68,0,0,1,1.68-1.68h10a1.68,1.68,0,0,1,1.68,1.68h0A1.68,1.68,0,0,1,269.13,301.71Z" style="fill:#f0f0f0"></path><path d="M281.82,332.67a5.14,5.14,0,0,1-6.18-1.53c-2.31-2.8-.77-5.45.39-8.3,1-2.57,1.36-4.77.31-7.38a43.79,43.79,0,0,1-1.78-4c-.65-2.25-.18-4.48.25-6.72.49-2.55,1.36-5.49.38-8-1.46-3.75-8.72-6.29-11.67-2.94a6.28,6.28,0,0,0-1.27,4.61h1.8c0-2.93,1.32-5.17,5.67-4,8,2.24,1.62,11.83,3.23,17.49.76,2.68,2.73,4.8,2.33,7.75-.45,3.43-3.19,5.88-2.41,9.57a7,7,0,0,0,9.79,4.91C283.63,333.64,282.78,332.19,281.82,332.67Z" style="fill:#e0e0e0"></path><path d="M273.37,306.35s-.63,9.65-4.84,5.41S273.37,306.35,273.37,306.35Z" style="fill:#e0e0e0"></path><path d="M275.88,318.06s8.84,3.92,3.41,6.41S275.88,318.06,275.88,318.06Z" style="fill:#e0e0e0"></path><path d="M276.93,333.32s8.84,3.92,3.41,6.41S276.93,333.32,276.93,333.32Z" style="fill:#e0e0e0"></path><path d="M280.68,333.75s3.89-8.86,6.4-3.44S280.68,333.75,280.68,333.75Z" style="fill:#e0e0e0"></path><path d="M270.56,293.33s6.36-7.28,7.13-1.35S270.56,293.33,270.56,293.33Z" style="fill:#e0e0e0"></path><path d="M274.42,301.71s9.48,1.89,4.73,5.51S274.42,301.71,274.42,301.71Z" style="fill:#e0e0e0"></path><path d="M307.18,342.44h9.27a3.26,3.26,0,0,0,2-.69,10.94,10.94,0,1,0-13.18.08A3.15,3.15,0,0,0,307.18,342.44Z" style="fill:#f0f0f0"></path><rect x="308.87" y="306.49" width="5.9" height="22.64" style="fill:#f0f0f0"></rect><path d="M315.41,307.31h-7.18A1.21,1.21,0,0,1,307,306.1h0a1.21,1.21,0,0,1,1.21-1.21h7.18a1.21,1.21,0,0,1,1.21,1.21h0A1.21,1.21,0,0,1,315.41,307.31Z" style="fill:#f0f0f0"></path><rect x="120.33" y="122.77" width="5.51" height="13.62" style="fill:#ebebeb"></rect><path d="M126.43,123.54h-6.7a1.14,1.14,0,0,1-1.13-1.13h0a1.13,1.13,0,0,1,1.13-1.13h6.7a1.12,1.12,0,0,1,1.13,1.13h0A1.13,1.13,0,0,1,126.43,123.54Z" style="fill:#ebebeb"></path><path d="M112.06,148l11-16.38,11,16.38a2.3,2.3,0,0,1-1.91,3.58H114A2.3,2.3,0,0,1,112.06,148Z" style="fill:#ebebeb"></path><rect x="184.14" y="301.72" width="7.78" height="19.23" style="fill:#ebebeb"></rect><path d="M192.76,302.8H183.3a1.59,1.59,0,0,1-1.6-1.59h0a1.6,1.6,0,0,1,1.6-1.6h9.46a1.6,1.6,0,0,1,1.6,1.6h0A1.6,1.6,0,0,1,192.76,302.8Z" style="fill:#ebebeb"></path><path d="M172.46,337.37,188,314.24l15.56,23.13a3.25,3.25,0,0,1-2.69,5.07H175.16A3.26,3.26,0,0,1,172.46,337.37Z" style="fill:#ebebeb"></path><rect x="83.62" y="290.11" width="6.94" height="33.16" style="fill:#f5f5f5"></rect><path d="M91.31,291.08H82.86a1.43,1.43,0,0,1-1.42-1.43h0a1.43,1.43,0,0,1,1.42-1.42h8.45a1.42,1.42,0,0,1,1.42,1.42h0A1.42,1.42,0,0,1,91.31,291.08Z" style="fill:#f5f5f5"></path><path d="M73.2,337.92l13.89-20.63L101,337.92a2.9,2.9,0,0,1-2.4,4.52h-23A2.9,2.9,0,0,1,73.2,337.92Z" style="fill:#f5f5f5"></path><path d="M116.24,305.82a.54.54,0,0,0-.38.93l2.31,2.31v30.45a2.93,2.93,0,0,0,2.92,2.93h17.14a2.93,2.93,0,0,0,2.93-2.93V305.82Z" style="fill:#f0f0f0"></path><path d="M269.44,115.49a.55.55,0,0,0-.39.93l2.31,2.31v30.45a2.93,2.93,0,0,0,2.93,2.93h17.14a2.94,2.94,0,0,0,2.93-2.93V115.49Z" style="fill:#f5f5f5"></path><path d="M80,109.91a.62.62,0,0,0-.43,1.06l2.62,2.62v34.67a3.34,3.34,0,0,0,3.34,3.33H105a3.33,3.33,0,0,0,3.33-3.33V109.91Z" style="fill:#f5f5f5"></path><path d="M100.17,112.14h4.63a.4.4,0,0,0,0-.8h-4.63a.4.4,0,0,0,0,.8Z" style="fill:#e6e6e6"></path><path d="M102,114.59h2.84a.4.4,0,0,0,0-.8H102a.4.4,0,0,0,0,.8Z" style="fill:#e6e6e6"></path><path d="M102,117h2.84a.41.41,0,0,0,0-.81H102a.41.41,0,0,0,0,.81Z" style="fill:#e6e6e6"></path><path d="M102,119.49h2.84a.41.41,0,0,0,0-.81H102a.41.41,0,0,0,0,.81Z" style="fill:#e6e6e6"></path><path d="M102,121.93h2.84a.4.4,0,0,0,0-.8H102a.4.4,0,0,0,0,.8Z" style="fill:#e6e6e6"></path><path d="M100.17,124.38h4.63a.4.4,0,0,0,0-.8h-4.63a.4.4,0,0,0,0,.8Z" style="fill:#e6e6e6"></path><path d="M102,126.83h2.84a.41.41,0,0,0,0-.81H102a.41.41,0,0,0,0,.81Z" style="fill:#e6e6e6"></path><path d="M102,129.28h2.84a.41.41,0,0,0,0-.81H102a.41.41,0,0,0,0,.81Z" style="fill:#e6e6e6"></path><path d="M102,131.72h2.84a.4.4,0,0,0,0-.8H102a.4.4,0,0,0,0,.8Z" style="fill:#e6e6e6"></path><path d="M102,134.17h2.84a.4.4,0,0,0,0-.8H102a.4.4,0,0,0,0,.8Z" style="fill:#e6e6e6"></path><path d="M100.17,136.62h4.63a.41.41,0,0,0,0-.81h-4.63a.41.41,0,0,0,0,.81Z" style="fill:#e6e6e6"></path><path d="M102,139.07h2.84a.41.41,0,0,0,0-.81H102a.41.41,0,0,0,0,.81Z" style="fill:#e6e6e6"></path><path d="M102,141.52h2.84a.41.41,0,0,0,0-.81H102a.41.41,0,0,0,0,.81Z" style="fill:#e6e6e6"></path><path d="M102,144h2.84a.4.4,0,0,0,0-.8H102a.4.4,0,0,0,0,.8Z" style="fill:#e6e6e6"></path><path d="M102,146.41h2.84a.41.41,0,0,0,0-.81H102a.41.41,0,0,0,0,.81Z" style="fill:#e6e6e6"></path><path d="M100.17,148.86h4.63a.41.41,0,0,0,0-.81h-4.63a.41.41,0,0,0,0,.81Z" style="fill:#e6e6e6"></path><path d="M387.38,231.23h23.06a4.28,4.28,0,0,0,4.28-4.28v-14h-2v14a2.29,2.29,0,0,1-2.28,2.28H387.38Z" style="fill:#e0e0e0"></path><circle cx="387.38" cy="212.94" r="12.69" style="fill:#f0f0f0"></circle><path d="M376.45,243.14H384l.91-20h5l.92,20h7.52a3.65,3.65,0,0,1,3.65,3.65v.32H372.8v-.32A3.65,3.65,0,0,1,376.45,243.14Z" style="fill:#ebebeb"></path><path d="M409.56,212.94a4.17,4.17,0,1,0,4.16-4.17A4.16,4.16,0,0,0,409.56,212.94Z" style="fill:#f0f0f0"></path><path d="M375.21,142.48h0a2.86,2.86,0,0,1-2.86-2.85V116.47h5.71v23.16A2.86,2.86,0,0,1,375.21,142.48Z" style="fill:#f5f5f5"></path><path d="M378.68,117.27h-6.95a1.17,1.17,0,0,1-1.17-1.17h0a1.17,1.17,0,0,1,1.17-1.17h6.95a1.17,1.17,0,0,1,1.18,1.17h0A1.17,1.17,0,0,1,378.68,117.27Z" style="fill:#f5f5f5"></path><path d="M387.6,142.48h0a2.85,2.85,0,0,1-2.85-2.85V116.47h5.71v23.16A2.86,2.86,0,0,1,387.6,142.48Z" style="fill:#f5f5f5"></path><path d="M391.08,117.27h-7A1.17,1.17,0,0,1,383,116.1h0a1.17,1.17,0,0,1,1.17-1.17h7a1.17,1.17,0,0,1,1.17,1.17h0A1.17,1.17,0,0,1,391.08,117.27Z" style="fill:#f5f5f5"></path><path d="M400,142.48h0a2.86,2.86,0,0,1-2.85-2.85V116.47h5.71v23.16A2.86,2.86,0,0,1,400,142.48Z" style="fill:#f5f5f5"></path><path d="M403.47,117.27h-7a1.17,1.17,0,0,1-1.17-1.17h0a1.17,1.17,0,0,1,1.17-1.17h7a1.17,1.17,0,0,1,1.17,1.17h0A1.17,1.17,0,0,1,403.47,117.27Z" style="fill:#f5f5f5"></path><path d="M412.39,142.48h0a2.86,2.86,0,0,1-2.86-2.85V116.47h5.71v23.16A2.86,2.86,0,0,1,412.39,142.48Z" style="fill:#f5f5f5"></path><path d="M415.86,117.27h-6.95a1.17,1.17,0,0,1-1.17-1.17h0a1.17,1.17,0,0,1,1.17-1.17h6.95A1.17,1.17,0,0,1,417,116.1h0A1.17,1.17,0,0,1,415.86,117.27Z" style="fill:#f5f5f5"></path><path d="M366,119v32.63h2.66v-3.26H419v3.26h2.65V119Zm53,26.72H368.62V121.62H419v24.06Z" style="fill:#ebebeb"></path><polygon points="293.42 151.59 314.81 123.2 336.2 151.59 293.42 151.59" style="fill:#fafafa"></polygon><polygon points="336.2 151.59 314.81 123.2 314.81 151.59 336.2 151.59" style="fill:#ebebeb"></polygon><polygon points="365.05 342.44 391.51 307.31 417.98 342.44 365.05 342.44" style="fill:#f5f5f5"></polygon><polygon points="417.98 342.44 391.51 307.31 391.51 342.44 417.98 342.44" style="fill:#ebebeb"></polygon></g></svg>