<svg xmlns="http://www.w3.org/2000/svg" viewBox="0 0 500 500"><g id="freepik--background-complete--inject-7"><rect y="382.4" width="500" height="0.25" style="fill:#ebebeb"></rect><rect x="150.04" y="388.78" width="23.18" height="0.25" style="fill:#ebebeb"></rect><rect x="402.1" y="394.14" width="56.67" height="0.25" style="fill:#ebebeb"></rect><rect x="42.72" y="394.14" width="56.67" height="0.25" style="fill:#ebebeb"></rect><path d="M237,337.8H43.91a5.71,5.71,0,0,1-5.7-5.71V60.66A5.71,5.71,0,0,1,43.91,55H237a5.71,5.71,0,0,1,5.71,5.71h0V332.09A5.71,5.71,0,0,1,237,337.8ZM43.91,55.2a5.46,5.46,0,0,0-5.45,5.46V332.09a5.46,5.46,0,0,0,5.45,5.46H237a5.48,5.48,0,0,0,5.46-5.46V60.66A5.48,5.48,0,0,0,237,55.2Z" style="fill:#ebebeb"></path><path d="M453.31,337.8H260.21a5.73,5.73,0,0,1-5.71-5.71V60.66A5.72,5.72,0,0,1,260.21,55h193.1A5.71,5.71,0,0,1,459,60.66V332.09A5.7,5.7,0,0,1,453.31,337.8ZM260.21,55.2a5.48,5.48,0,0,0-5.46,5.46V332.09a5.48,5.48,0,0,0,5.46,5.46h193.1a5.48,5.48,0,0,0,5.46-5.46V60.66a5.48,5.48,0,0,0-5.46-5.46Z" style="fill:#ebebeb"></path><rect x="73.39" y="241.63" width="140.77" height="140.77" style="fill:#e0e0e0"></rect><rect x="59.9" y="241.63" width="129.28" height="140.77" style="fill:#ebebeb"></rect><rect x="65.11" y="249.25" width="118.7" height="38.44" style="fill:#f5f5f5"></rect><rect x="65.11" y="293.74" width="118.7" height="38.44" style="fill:#f5f5f5"></rect><rect x="65.11" y="336.35" width="118.7" height="38.44" style="fill:#f5f5f5"></rect><path d="M125.72,266.34a4.2,4.2,0,1,1-4.2-4.2A4.2,4.2,0,0,1,125.72,266.34Z" style="fill:#fafafa"></path><path d="M124.54,351.68a3,3,0,1,1-3-3A3,3,0,0,1,124.54,351.68Z" style="fill:#fafafa"></path><path d="M124.54,312.38a3,3,0,1,1-3-3A3,3,0,0,1,124.54,312.38Z" style="fill:#fafafa"></path><rect x="68.1" y="68.69" width="163.66" height="107.87" style="fill:#e0e0e0"></rect><rect x="64.94" y="68.69" width="163.66" height="107.87" style="fill:#f0f0f0"></rect><rect x="69.64" y="73.83" width="152.94" height="98.44" style="fill:#fafafa"></rect><polygon points="217.42 75.23 173.91 172.27 156.03 172.27 197.88 75.23 217.42 75.23" style="fill:#fff"></polygon><polygon points="181.77 75.23 137.58 172.27 116.62 172.27 162.82 75.23 181.77 75.23" style="fill:#fff"></polygon><rect x="64.94" y="68.69" width="166.6" height="6.54" style="fill:#e0e0e0"></rect><rect x="64.94" y="76.92" width="166.6" height="6.54" style="fill:#e0e0e0"></rect><rect x="64.94" y="85.15" width="166.6" height="6.54" style="fill:#e0e0e0"></rect><rect x="64.94" y="93.37" width="166.6" height="6.54" style="fill:#e0e0e0"></rect><rect x="64.94" y="101.6" width="166.6" height="6.54" style="fill:#e0e0e0"></rect><rect x="61.37" y="176.56" width="175.14" height="8.14" style="fill:#e0e0e0"></rect><polygon points="439.17 298.58 439.17 382.4 409.55 382.4 407.97 374.01 292.88 374.01 292.88 298.58 439.17 298.58" style="fill:#e0e0e0"></polygon><polygon points="418.88 298.58 418.88 382.4 409.55 382.4 407.97 374.01 290.59 374.01 288.73 382.4 272.59 382.4 272.59 298.58 418.88 298.58" style="fill:#ebebeb"></polygon><rect x="280.02" y="304.46" width="130.61" height="28.88" style="fill:none;stroke:#fafafa;stroke-miterlimit:10"></rect><rect x="280.02" y="339.09" width="130.61" height="29.17" style="fill:none;stroke:#fafafa;stroke-miterlimit:10"></rect><rect x="377.81" y="64.43" width="58.73" height="79.43" style="fill:#e0e0e0"></rect><rect x="374.87" y="64.38" width="58.73" height="79.43" style="fill:#e6e6e6"></rect><rect x="377.81" y="67.36" width="52.74" height="73.59" style="fill:#fafafa"></rect><rect x="384.86" y="124.98" width="40.31" height="1.72" style="fill:#e0e0e0"></rect><rect x="384.86" y="129.37" width="40.31" height="1.72" style="fill:#e0e0e0"></rect><rect x="384.86" y="133.76" width="40.31" height="1.72" style="fill:#e0e0e0"></rect><path d="M419.41,94.58A14.39,14.39,0,1,1,405,80.19,14.39,14.39,0,0,1,419.41,94.58Z" style="fill:none;stroke:#e0e0e0;stroke-miterlimit:10"></path><rect x="363.4" y="164.37" width="50.15" height="50.15" style="fill:#e0e0e0"></rect><rect x="359.11" y="164.37" width="50.15" height="50.15" style="fill:#ebebeb"></rect><rect x="362.58" y="167.84" width="43.22" height="43.22" style="fill:#fafafa"></rect><rect x="372.73" y="177.98" width="22.92" height="22.92" style="fill:#e0e0e0"></rect></g></svg>